<svg width="613" height="641" viewBox="0 0 613 641" fill="none" xmlns="http://www.w3.org/2000/svg">
<path d="M319.074 626.126C317.279 626.239 316.287 624.005 317.645 622.703L317.78 622.165C317.763 622.122 317.745 622.079 317.727 622.036C315.911 617.7 309.759 617.73 307.959 622.072C306.361 625.926 304.327 629.787 303.826 633.862C303.602 635.661 303.703 637.493 304.101 639.258C300.358 631.068 298.388 622.124 298.388 613.13C298.388 610.87 298.512 608.611 298.764 606.356C298.972 604.513 299.258 602.68 299.628 600.864C301.632 591.049 305.97 581.701 312.228 573.893C315.236 572.246 317.745 569.671 319.26 566.585C319.804 565.472 320.231 564.275 320.433 563.055C320.091 563.1 319.142 557.877 319.4 557.557C318.923 556.832 318.069 556.471 317.548 555.764C314.957 552.245 311.387 552.859 309.523 557.641C305.541 559.654 305.503 562.992 307.946 566.203C309.5 568.245 309.714 571.009 311.077 573.196C310.937 573.376 310.791 573.55 310.651 573.73C308.078 577.035 305.853 580.588 303.977 584.321C304.507 580.172 303.724 575.175 302.39 571.953C300.871 568.283 298.023 565.192 295.516 562.019C292.504 558.207 286.329 559.871 285.798 564.702C285.793 564.749 285.788 564.796 285.783 564.842C286.155 565.053 286.52 565.276 286.877 565.512C288.909 566.859 288.207 570.015 285.798 570.388L285.744 570.396C285.878 571.74 286.109 573.072 286.445 574.382C283.229 586.841 290.173 591.38 300.089 591.583C300.307 591.696 300.521 591.808 300.74 591.915C299.735 594.748 298.932 597.654 298.338 600.6C297.804 603.203 297.434 605.834 297.226 608.476C296.968 611.809 296.991 615.159 297.271 618.487L297.254 618.369C296.542 614.704 294.555 611.281 291.67 608.908C287.373 605.373 281.302 604.071 276.666 601.228C274.434 599.86 271.574 601.628 271.964 604.22L271.983 604.344C272.673 604.625 273.346 604.951 273.997 605.316C274.37 605.527 274.735 605.75 275.091 605.986C277.124 607.333 276.421 610.49 274.013 610.862L273.958 610.87C273.919 610.876 273.885 610.882 273.846 610.887C275.03 613.704 276.68 616.317 278.745 618.572C280.757 629.448 289.395 630.48 298.635 627.313H298.641C299.651 631.72 301.127 636.026 303.024 640.13H318.682C318.738 639.955 318.789 639.776 318.839 639.601C317.391 639.691 315.932 639.607 314.506 639.343C315.668 637.915 316.83 636.476 317.992 635.048C318.02 635.02 318.042 634.992 318.065 634.964C318.654 634.233 319.249 633.508 319.838 632.777L319.838 632.776C319.875 630.533 319.606 628.296 319.074 626.126Z" fill="#F2F2F2"/>
<path d="M545.658 626.127C545.126 628.296 544.857 630.533 544.894 632.776L544.894 632.777C545.484 633.508 546.079 634.233 546.668 634.964C546.69 634.992 546.713 635.02 546.741 635.048C547.903 636.476 549.064 637.915 550.226 639.343C548.8 639.607 547.341 639.691 545.893 639.601C545.944 639.776 545.994 639.955 546.05 640.13H561.709C563.606 636.026 565.082 631.72 566.092 627.313H566.097C575.338 630.48 583.976 629.448 585.987 618.572C588.052 616.317 589.702 613.704 590.887 610.887C590.847 610.882 590.814 610.876 590.774 610.87L590.72 610.862C588.311 610.49 587.609 607.333 589.641 605.986C589.998 605.75 590.363 605.527 590.735 605.316C591.386 604.951 592.06 604.625 592.75 604.344L592.769 604.22C593.158 601.628 590.299 599.86 588.067 601.228C583.431 604.071 577.36 605.373 573.062 608.908C570.177 611.281 568.191 614.704 567.478 618.369L567.461 618.487C567.742 615.159 567.764 611.809 567.506 608.476C567.298 605.834 566.928 603.203 566.395 600.6C565.8 597.654 564.997 594.748 563.993 591.915C564.212 591.808 564.425 591.696 564.644 591.583C574.559 591.38 581.504 586.841 578.287 574.382C578.624 573.072 578.854 571.74 578.989 570.396L578.934 570.388C576.525 570.015 575.823 566.859 577.856 565.512C578.212 565.276 578.577 565.053 578.949 564.842C578.945 564.796 578.94 564.749 578.934 564.702C578.404 559.871 572.228 558.207 569.216 562.019C566.709 565.192 563.862 568.283 562.343 571.953C561.008 575.175 560.226 580.172 560.756 584.321C558.88 580.588 556.655 577.035 554.082 573.73C553.941 573.55 553.795 573.376 553.655 573.196C555.019 571.009 555.232 568.245 556.787 566.203C559.23 562.992 559.191 559.654 555.21 557.641C553.346 552.859 549.776 552.245 547.184 555.764C546.663 556.471 545.809 556.832 545.332 557.557C545.59 557.877 544.642 563.1 544.299 563.055C544.501 564.275 544.928 565.472 545.472 566.585C546.988 569.671 549.496 572.246 552.505 573.893C558.762 581.701 563.1 591.049 565.104 600.864C565.474 602.68 565.761 604.513 565.968 606.356C566.221 608.611 566.344 610.87 566.344 613.13C566.344 622.124 564.374 631.068 560.631 639.258C561.03 637.493 561.131 635.661 560.906 633.862C560.405 629.787 558.371 625.926 556.774 622.072C554.974 617.73 548.821 617.7 547.006 622.036C546.988 622.079 546.97 622.122 546.952 622.165L547.087 622.703C548.445 624.005 547.453 626.239 545.658 626.127Z" fill="#F2F2F2"/>
<path d="M379.83 401.489H476.315L476.21 400.523L441.992 88.813H409.344L409.27 89.6013L379.83 401.489ZM471.769 399.748H384.346L410.926 90.5537H440.435L471.769 399.748Z" fill="#3F3D56"/>
<path d="M354.619 414.122H503.512V399.748H354.619V414.122ZM501.774 412.382H356.356V401.489H501.774V412.382Z" fill="#3F3D56"/>
<path d="M398.389 90.5538H451.82V76.1792H398.389V90.5538ZM450.082 88.8131H400.127V77.9199H450.082V88.8131Z" fill="#3F3D56"/>
<path d="M373.202 435.192L352.704 519.066H345.579L373.202 435.192ZM352.704 519.066H372.889L393.561 434.469L393.987 432.729L398.531 414.121H380.136L374.01 432.729L373.437 434.469L373.202 435.192L373.376 434.469L373.802 432.729L378.772 412.38H400.738L395.768 432.729L395.342 434.469L374.245 520.807H352.278L352.704 519.066Z" fill="#3F3D56"/>
<path d="M484.432 432.729L485.041 434.469L514.323 519.066H505.425L484.754 434.469L484.328 432.729L484.076 431.693L484.432 432.729ZM479.358 412.38L484.076 431.693L477.994 414.121H459.607L464.152 432.729L464.578 434.469L485.249 519.066H505.425L505.851 520.807H483.885L462.788 434.469L462.362 432.729L457.392 412.38H479.358Z" fill="#3F3D56"/>
<path d="M296.18 640.13H333.493L368.955 583.547L367.358 582.86L332.347 638.389H300.555L344.049 532.916L342.452 532.229L296.18 640.13Z" fill="#3F3D56"/>
<path d="M527.161 640.13H564.473L518.201 532.229L516.604 532.916L560.097 638.389H528.306L493.296 582.86L491.699 583.547L527.161 640.13Z" fill="#3F3D56"/>
<path d="M282.085 533.443H570.29V519.069H282.085V533.443ZM568.552 531.702H283.823V520.809H568.552V531.702Z" fill="#3F3D56"/>
<path d="M350.902 612.694C403.72 590.961 457.283 590.961 510.104 612.694L511.151 611.155C460.718 580.597 413.564 575.362 349.854 611.155L350.902 612.694Z" fill="#3F3D56"/>
<path d="M355.255 589.41C404.967 567.644 455.379 567.644 505.091 589.41L505.853 587.827C455.635 565.841 404.711 565.841 354.493 587.827L355.255 589.41Z" fill="#3F3D56"/>
<path d="M373.376 434.469H485.041L484.432 432.729H373.802L373.376 434.469Z" fill="#3F3D56"/>
<path d="M370.708 444.558H488.012L486.274 440.962H371.577L370.708 444.558Z" fill="#3F3D56"/>
<path d="M409.266 78.0069H442.082V48.769H409.266V78.0069ZM440.344 76.2663H411.004V52.2504L438.606 50.5097L440.344 76.2663Z" fill="#3F3D56"/>
<path d="M421.179 50.5097H431.196V0H421.179V50.5097ZM429.458 48.7691H422.917L425.45 1.44171L429.458 1.74067V48.7691Z" fill="#3F3D56"/>
<path d="M0 639.259H613V641H0V639.259Z" fill="#3F3D56"/>
</svg>
