<svg width="90" height="55" viewBox="0 0 90 55" fill="none" xmlns="http://www.w3.org/2000/svg">
<rect x="0.5" y="18.375" width="89" height="35.5625" rx="3.5" fill="#F0F0F0" stroke="#171717"/>
<path d="M63.2393 37.0826L71.4856 37.2413L64.2112 40.9087L64.856 39.9772L65.0533 39.692L64.8554 39.4072L63.2393 37.0826Z" fill="#171717" stroke="#171717"/>
<mask id="path-3-inside-1_1760_8" fill="white">
<path fill-rule="evenodd" clip-rule="evenodd" d="M32.83 50.3461C33.1666 49.8541 33.2055 49.3104 32.9465 48.7149L29.7617 41.0246C29.684 40.8952 29.6711 40.7657 29.7228 40.6362C29.7746 40.4809 29.8523 40.3903 29.9559 40.3644C30.8103 39.9242 31.4965 39.3028 32.0144 38.5001C32.5581 37.6715 32.83 36.7523 32.83 35.7425V30.0719C32.83 29.1139 32.597 28.2464 32.1309 27.4697C31.6648 26.6929 31.0434 26.0714 30.2666 25.6054C29.4898 25.1393 28.6353 24.9062 27.7032 24.9062H17.1777C16.6857 24.9062 16.2714 25.0746 15.9348 25.4112C15.6241 25.7478 15.4688 26.175 15.4688 26.6929V49.3751C15.4688 49.8671 15.6241 50.2944 15.9348 50.6568C16.2714 50.9935 16.6857 51.1617 17.1777 51.1617H18.2652C18.7572 51.1617 19.1714 50.9935 19.5081 50.6568C19.8706 50.2944 20.0518 49.8671 20.0518 49.3751V41.3742C20.0518 41.0375 20.2201 40.8693 20.5567 40.8693H24.1688C24.5054 40.8693 24.7385 41.0246 24.8679 41.3353L28.5188 50.0742C28.6482 50.3849 28.8684 50.6439 29.1791 50.851C29.5157 51.0581 29.8523 51.1617 30.1889 51.1617H31.3541C31.9496 51.1617 32.4416 50.8899 32.83 50.3461ZM28.2081 30.0719V35.7425C28.2081 36.0791 28.0398 36.2474 27.7032 36.2474H20.5567C20.2201 36.2474 20.0518 36.0791 20.0518 35.7425V30.0331C20.0518 29.6965 20.2201 29.5281 20.5567 29.5281H27.7032C28.0398 29.5281 28.2081 29.7094 28.2081 30.0719ZM52.8736 48.5983C53.3397 47.8215 53.5727 46.9671 53.5727 46.0349V44.8697C53.5727 44.3777 53.4044 43.9635 53.0678 43.6269C52.7311 43.2644 52.3039 43.0831 51.7861 43.0831H50.7374C50.2454 43.0831 49.8182 43.2644 49.4557 43.6269C49.1191 43.9635 48.9508 44.3777 48.9508 44.8697V46.0349C48.9508 46.1644 48.899 46.2939 48.7954 46.4233C48.6918 46.5269 48.5753 46.5787 48.4459 46.5787H41.4548C41.3254 46.5787 41.2088 46.5269 41.1052 46.4233C41.0016 46.2939 40.9499 46.1644 40.9499 46.0349V30.0719C40.9499 29.7094 41.1181 29.5281 41.4548 29.5281H48.4459C48.7825 29.5281 48.9508 29.7094 48.9508 30.0719V31.1206C48.9508 31.6125 49.1191 32.0268 49.4557 32.3634C49.8182 32.7 50.2454 32.8683 50.7374 32.8683H51.7861C52.3039 32.8683 52.7311 32.7 53.0678 32.3634C53.4044 32.0268 53.5727 31.6125 53.5727 31.1206V30.0719C53.5727 29.1139 53.3397 28.2464 52.8736 27.4697C52.4075 26.6929 51.7861 26.0714 51.0093 25.6054C50.2325 25.1393 49.378 24.9062 48.4459 24.9062H41.4548C40.5226 24.9062 39.6553 25.1393 38.8525 25.6054C38.0758 26.0714 37.4543 26.6929 36.9882 27.4697C36.5222 28.2464 36.2891 29.1139 36.2891 30.0719V46.0349C36.2891 46.9671 36.5222 47.8215 36.9882 48.5983C37.4543 49.3751 38.0758 49.9966 38.8525 50.4626C39.6553 50.9287 40.5226 51.1617 41.4548 51.1617H48.4459C49.378 51.1617 50.2325 50.9287 51.0093 50.4626C51.7861 49.9966 52.4075 49.3751 52.8736 48.5983Z"/>
<path d="M73.5893 27.7415C73.5893 28.2335 73.408 28.6607 73.0455 29.0232C72.7089 29.3598 72.3076 29.5281 71.8415 29.5281H61.8209C61.5102 29.5281 61.3549 29.6965 61.3549 30.0331C61.3549 30.0331 61.3549 34.8362 61.3549 35.1987C61.3549 35.5612 61.3549 35.6853 61.3549 35.6853V36.0339V36.5297C61.3549 36.5297 61.3549 36.9816 61.3549 37.4736V38.358V39.3153V39.8595V40.3199V40.8304V49.3751C61.3549 49.8671 61.1736 50.2944 60.8111 50.6568C60.4745 50.9935 60.0603 51.1617 59.5683 51.1617H58.4807C58.0147 51.1617 57.6004 50.9935 57.2379 50.6568C56.9012 50.2944 56.733 49.8671 56.733 49.3751V26.6929C56.733 26.175 56.9012 25.7478 57.2379 25.4112C57.6004 25.0746 58.0147 24.9062 58.4807 24.9062H71.8415C72.3076 24.9062 72.7089 25.0746 73.0455 25.4112C73.408 25.7478 73.5893 26.175 73.5893 26.6929V27.7415Z"/>
</mask>
<path fill-rule="evenodd" clip-rule="evenodd" d="M32.83 50.3461C33.1666 49.8541 33.2055 49.3104 32.9465 48.7149L29.7617 41.0246C29.684 40.8952 29.6711 40.7657 29.7228 40.6362C29.7746 40.4809 29.8523 40.3903 29.9559 40.3644C30.8103 39.9242 31.4965 39.3028 32.0144 38.5001C32.5581 37.6715 32.83 36.7523 32.83 35.7425V30.0719C32.83 29.1139 32.597 28.2464 32.1309 27.4697C31.6648 26.6929 31.0434 26.0714 30.2666 25.6054C29.4898 25.1393 28.6353 24.9062 27.7032 24.9062H17.1777C16.6857 24.9062 16.2714 25.0746 15.9348 25.4112C15.6241 25.7478 15.4688 26.175 15.4688 26.6929V49.3751C15.4688 49.8671 15.6241 50.2944 15.9348 50.6568C16.2714 50.9935 16.6857 51.1617 17.1777 51.1617H18.2652C18.7572 51.1617 19.1714 50.9935 19.5081 50.6568C19.8706 50.2944 20.0518 49.8671 20.0518 49.3751V41.3742C20.0518 41.0375 20.2201 40.8693 20.5567 40.8693H24.1688C24.5054 40.8693 24.7385 41.0246 24.8679 41.3353L28.5188 50.0742C28.6482 50.3849 28.8684 50.6439 29.1791 50.851C29.5157 51.0581 29.8523 51.1617 30.1889 51.1617H31.3541C31.9496 51.1617 32.4416 50.8899 32.83 50.3461ZM28.2081 30.0719V35.7425C28.2081 36.0791 28.0398 36.2474 27.7032 36.2474H20.5567C20.2201 36.2474 20.0518 36.0791 20.0518 35.7425V30.0331C20.0518 29.6965 20.2201 29.5281 20.5567 29.5281H27.7032C28.0398 29.5281 28.2081 29.7094 28.2081 30.0719ZM52.8736 48.5983C53.3397 47.8215 53.5727 46.9671 53.5727 46.0349V44.8697C53.5727 44.3777 53.4044 43.9635 53.0678 43.6269C52.7311 43.2644 52.3039 43.0831 51.7861 43.0831H50.7374C50.2454 43.0831 49.8182 43.2644 49.4557 43.6269C49.1191 43.9635 48.9508 44.3777 48.9508 44.8697V46.0349C48.9508 46.1644 48.899 46.2939 48.7954 46.4233C48.6918 46.5269 48.5753 46.5787 48.4459 46.5787H41.4548C41.3254 46.5787 41.2088 46.5269 41.1052 46.4233C41.0016 46.2939 40.9499 46.1644 40.9499 46.0349V30.0719C40.9499 29.7094 41.1181 29.5281 41.4548 29.5281H48.4459C48.7825 29.5281 48.9508 29.7094 48.9508 30.0719V31.1206C48.9508 31.6125 49.1191 32.0268 49.4557 32.3634C49.8182 32.7 50.2454 32.8683 50.7374 32.8683H51.7861C52.3039 32.8683 52.7311 32.7 53.0678 32.3634C53.4044 32.0268 53.5727 31.6125 53.5727 31.1206V30.0719C53.5727 29.1139 53.3397 28.2464 52.8736 27.4697C52.4075 26.6929 51.7861 26.0714 51.0093 25.6054C50.2325 25.1393 49.378 24.9062 48.4459 24.9062H41.4548C40.5226 24.9062 39.6553 25.1393 38.8525 25.6054C38.0758 26.0714 37.4543 26.6929 36.9882 27.4697C36.5222 28.2464 36.2891 29.1139 36.2891 30.0719V46.0349C36.2891 46.9671 36.5222 47.8215 36.9882 48.5983C37.4543 49.3751 38.0758 49.9966 38.8525 50.4626C39.6553 50.9287 40.5226 51.1617 41.4548 51.1617H48.4459C49.378 51.1617 50.2325 50.9287 51.0093 50.4626C51.7861 49.9966 52.4075 49.3751 52.8736 48.5983Z" fill="#1F1F1F"/>
<path d="M73.5893 27.7415C73.5893 28.2335 73.408 28.6607 73.0455 29.0232C72.7089 29.3598 72.3076 29.5281 71.8415 29.5281H61.8209C61.5102 29.5281 61.3549 29.6965 61.3549 30.0331C61.3549 30.0331 61.3549 34.8362 61.3549 35.1987C61.3549 35.5612 61.3549 35.6853 61.3549 35.6853V36.0339V36.5297C61.3549 36.5297 61.3549 36.9816 61.3549 37.4736V38.358V39.3153V39.8595V40.3199V40.8304V49.3751C61.3549 49.8671 61.1736 50.2944 60.8111 50.6568C60.4745 50.9935 60.0603 51.1617 59.5683 51.1617H58.4807C58.0147 51.1617 57.6004 50.9935 57.2379 50.6568C56.9012 50.2944 56.733 49.8671 56.733 49.3751V26.6929C56.733 26.175 56.9012 25.7478 57.2379 25.4112C57.6004 25.0746 58.0147 24.9062 58.4807 24.9062H71.8415C72.3076 24.9062 72.7089 25.0746 73.0455 25.4112C73.408 25.7478 73.5893 26.175 73.5893 26.6929V27.7415Z" fill="#1F1F1F"/>
<path fill-rule="evenodd" clip-rule="evenodd" d="M32.83 50.3461C33.1666 49.8541 33.2055 49.3104 32.9465 48.7149L29.7617 41.0246C29.684 40.8952 29.6711 40.7657 29.7228 40.6362C29.7746 40.4809 29.8523 40.3903 29.9559 40.3644C30.8103 39.9242 31.4965 39.3028 32.0144 38.5001C32.5581 37.6715 32.83 36.7523 32.83 35.7425V30.0719C32.83 29.1139 32.597 28.2464 32.1309 27.4697C31.6648 26.6929 31.0434 26.0714 30.2666 25.6054C29.4898 25.1393 28.6353 24.9062 27.7032 24.9062H17.1777C16.6857 24.9062 16.2714 25.0746 15.9348 25.4112C15.6241 25.7478 15.4688 26.175 15.4688 26.6929V49.3751C15.4688 49.8671 15.6241 50.2944 15.9348 50.6568C16.2714 50.9935 16.6857 51.1617 17.1777 51.1617H18.2652C18.7572 51.1617 19.1714 50.9935 19.5081 50.6568C19.8706 50.2944 20.0518 49.8671 20.0518 49.3751V41.3742C20.0518 41.0375 20.2201 40.8693 20.5567 40.8693H24.1688C24.5054 40.8693 24.7385 41.0246 24.8679 41.3353L28.5188 50.0742C28.6482 50.3849 28.8684 50.6439 29.1791 50.851C29.5157 51.0581 29.8523 51.1617 30.1889 51.1617H31.3541C31.9496 51.1617 32.4416 50.8899 32.83 50.3461ZM28.2081 30.0719V35.7425C28.2081 36.0791 28.0398 36.2474 27.7032 36.2474H20.5567C20.2201 36.2474 20.0518 36.0791 20.0518 35.7425V30.0331C20.0518 29.6965 20.2201 29.5281 20.5567 29.5281H27.7032C28.0398 29.5281 28.2081 29.7094 28.2081 30.0719ZM52.8736 48.5983C53.3397 47.8215 53.5727 46.9671 53.5727 46.0349V44.8697C53.5727 44.3777 53.4044 43.9635 53.0678 43.6269C52.7311 43.2644 52.3039 43.0831 51.7861 43.0831H50.7374C50.2454 43.0831 49.8182 43.2644 49.4557 43.6269C49.1191 43.9635 48.9508 44.3777 48.9508 44.8697V46.0349C48.9508 46.1644 48.899 46.2939 48.7954 46.4233C48.6918 46.5269 48.5753 46.5787 48.4459 46.5787H41.4548C41.3254 46.5787 41.2088 46.5269 41.1052 46.4233C41.0016 46.2939 40.9499 46.1644 40.9499 46.0349V30.0719C40.9499 29.7094 41.1181 29.5281 41.4548 29.5281H48.4459C48.7825 29.5281 48.9508 29.7094 48.9508 30.0719V31.1206C48.9508 31.6125 49.1191 32.0268 49.4557 32.3634C49.8182 32.7 50.2454 32.8683 50.7374 32.8683H51.7861C52.3039 32.8683 52.7311 32.7 53.0678 32.3634C53.4044 32.0268 53.5727 31.6125 53.5727 31.1206V30.0719C53.5727 29.1139 53.3397 28.2464 52.8736 27.4697C52.4075 26.6929 51.7861 26.0714 51.0093 25.6054C50.2325 25.1393 49.378 24.9062 48.4459 24.9062H41.4548C40.5226 24.9062 39.6553 25.1393 38.8525 25.6054C38.0758 26.0714 37.4543 26.6929 36.9882 27.4697C36.5222 28.2464 36.2891 29.1139 36.2891 30.0719V46.0349C36.2891 46.9671 36.5222 47.8215 36.9882 48.5983C37.4543 49.3751 38.0758 49.9966 38.8525 50.4626C39.6553 50.9287 40.5226 51.1617 41.4548 51.1617H48.4459C49.378 51.1617 50.2325 50.9287 51.0093 50.4626C51.7861 49.9966 52.4075 49.3751 52.8736 48.5983Z" stroke="#171717" stroke-width="2" mask="url(#path-3-inside-1_1760_8)"/>
<path d="M73.5893 27.7415C73.5893 28.2335 73.408 28.6607 73.0455 29.0232C72.7089 29.3598 72.3076 29.5281 71.8415 29.5281H61.8209C61.5102 29.5281 61.3549 29.6965 61.3549 30.0331C61.3549 30.0331 61.3549 34.8362 61.3549 35.1987C61.3549 35.5612 61.3549 35.6853 61.3549 35.6853V36.0339V36.5297C61.3549 36.5297 61.3549 36.9816 61.3549 37.4736V38.358V39.3153V39.8595V40.3199V40.8304V49.3751C61.3549 49.8671 61.1736 50.2944 60.8111 50.6568C60.4745 50.9935 60.0603 51.1617 59.5683 51.1617H58.4807C58.0147 51.1617 57.6004 50.9935 57.2379 50.6568C56.9012 50.2944 56.733 49.8671 56.733 49.3751V26.6929C56.733 26.175 56.9012 25.7478 57.2379 25.4112C57.6004 25.0746 58.0147 24.9062 58.4807 24.9062H71.8415C72.3076 24.9062 72.7089 25.0746 73.0455 25.4112C73.408 25.7478 73.5893 26.175 73.5893 26.6929V27.7415Z" stroke="#171717" stroke-width="2" mask="url(#path-3-inside-1_1760_8)"/>
<path d="M19.52 5.2612C18.852 5.56132 18.2418 5.9742 17.7336 6.47268L9.10976 14.9249C9.10967 14.925 9.10958 14.9251 9.10949 14.9252C8.89352 15.1364 8.7306 15.4005 8.66067 15.6933C8.59131 15.9838 8.61789 16.2883 8.75593 16.5593L10.9922 21.5362C11.1639 21.9181 11.5101 22.1651 11.9027 22.2607C12.2916 22.3553 12.7139 22.3019 13.0841 22.1356C13.4543 21.9693 13.7747 21.6889 13.9622 21.3353C14.1514 20.9783 14.1966 20.5554 14.025 20.1734L12.6606 17.137L22.2042 16.6209C22.9427 16.5813 23.6878 16.3969 24.3832 16.0844C25.0786 15.7719 25.7112 15.3374 26.2312 14.8116C26.2312 14.8115 26.2313 14.8115 26.2313 14.8114L34.7326 6.22185C34.9345 6.01812 35.0874 5.7673 35.1571 5.49014C35.2274 5.21046 35.2092 4.91559 35.0855 4.64845C34.9618 4.38144 34.7489 4.17681 34.4908 4.04878C34.2349 3.92184 33.945 3.87433 33.6587 3.89428L21.612 4.72999C20.9018 4.77896 20.1879 4.96107 19.52 5.2612Z" fill="#F1F1F1" stroke="#171717"/>
<path d="M15.9131 17.6664L16.6575 17.6412L22.2808 17.4505L22.2892 17.4502L22.2977 17.4502C23.0432 17.4502 23.3663 17.4497 23.6094 17.4292C23.8209 17.4114 23.9666 17.3792 24.3219 17.3005C24.3348 17.2977 24.3481 17.2947 24.3616 17.2918C25.0199 16.9817 25.8088 16.302 26.266 15.6882L26.2766 15.674L26.2882 15.6606L29.5752 11.8453L30.088 11.25L30.4101 11.9667L31.7761 15.0068L31.7764 15.0075L31.3204 15.2125C31.3756 15.3348 31.4087 15.4656 31.418 15.5975C31.4273 15.7294 31.4125 15.8597 31.3744 15.981L15.9131 17.6664ZM15.9131 17.6664L16.2183 18.3458L17.5839 21.3848L17.5839 21.3849C17.6629 21.5606 17.7724 21.7216 17.9072 21.8589C18.0296 21.9834 18.1719 22.0872 18.3284 22.1639M15.9131 17.6664L18.3284 22.1639M18.3284 22.1639L18.3475 22.1773L18.4029 22.1991L18.4561 22.2201L18.6 22.2786L18.3284 22.1639Z" fill="#F1F1F1" stroke="#171717"/>
<path d="M21.0198 10.6662C21.583 10.3612 22.3745 10.23 22.4815 10.4276C22.5886 10.6253 21.9707 11.077 21.4075 11.382C20.8443 11.6871 20.3009 11.7741 20.1939 11.5764C20.0868 11.3787 20.4566 10.9712 21.0198 10.6662Z" fill="#151515"/>
</svg>
